<svg width="324" height="296" viewBox="0 0 324 296" fill="none" xmlns="http://www.w3.org/2000/svg">
<path d="M323.432 83.2838C323.423 1.82179 185.727 -45.0927 163.077 72.4089C126.254 -17.4238 40.7273 -7.67923 9.69694 49.5478C-21.3334 106.775 45.4688 182.332 45.4688 182.332C45.4688 182.332 149.923 287.944 163.099 294.615C176.276 301.287 323.44 164.746 323.432 83.2838Z" fill="#ED6096"/>
<path d="M163.077 72.4089L162.615 72.5985L163.251 74.1504L163.568 72.5037L163.077 72.4089ZM323.432 83.2838L322.932 83.2837L323.432 83.2838ZM163.099 294.615L162.874 295.061V295.061L163.099 294.615ZM9.69694 49.5478L9.25739 49.3094V49.3094L9.69694 49.5478ZM45.4688 182.332L45.0942 182.663L45.1035 182.673L45.1133 182.683L45.4688 182.332ZM163.077 72.4089L163.568 72.5037C169.211 43.2293 182.005 24.2592 197.966 13.4961C213.932 2.73028 233.128 0.134563 251.65 3.72586C288.731 10.9156 322.928 42.8486 322.932 83.2837L323.432 83.2838L323.932 83.2839C323.927 42.257 289.271 10.0017 251.84 2.74414C233.106 -0.888237 213.63 1.7276 197.407 12.6669C181.18 23.6091 168.268 42.8378 162.586 72.3142L163.077 72.4089ZM323.432 83.2838L322.932 83.2837C322.934 103.516 313.79 127.231 299.803 151.358C285.824 175.473 267.04 199.942 247.835 221.668C228.631 243.394 209.018 262.364 193.39 275.482C185.574 282.042 178.765 287.129 173.51 290.365C170.88 291.985 168.657 293.129 166.901 293.766C166.023 294.085 165.279 294.27 164.67 294.329C164.057 294.39 163.621 294.319 163.325 294.169L163.099 294.615L162.874 295.061C163.402 295.329 164.051 295.395 164.768 295.325C165.488 295.254 166.318 295.041 167.242 294.706C169.09 294.036 171.379 292.852 174.034 291.217C179.349 287.945 186.199 282.823 194.033 276.248C209.703 263.095 229.351 244.089 248.584 222.331C267.817 200.573 286.646 176.05 300.669 151.86C314.684 127.683 323.934 103.782 323.932 83.2839L323.432 83.2838ZM9.69694 49.5478L10.1365 49.7862C25.5666 21.3296 54.5315 4.70202 84.1875 6.3302C113.82 7.95707 144.26 27.8219 162.615 72.5985L163.077 72.4089L163.54 72.2194C145.071 27.1632 114.337 6.98397 84.242 5.3317C54.1713 3.68075 24.8576 20.539 9.25739 49.3094L9.69694 49.5478ZM163.099 294.615L163.325 294.169C161.742 293.368 158.716 291.032 154.587 287.495C150.478 283.975 145.322 279.308 139.502 273.89C127.861 263.056 113.572 249.232 99.6931 235.615C85.8144 221.998 72.3471 208.589 62.3493 198.584C57.3504 193.582 53.219 189.431 50.3374 186.53C48.8966 185.08 47.7683 183.943 47.0001 183.168C46.6161 182.78 46.322 182.483 46.1241 182.283C46.0251 182.183 45.9501 182.107 45.8999 182.057C45.8748 182.031 45.8558 182.012 45.8432 181.999C45.8369 181.993 45.8321 181.988 45.829 181.985C45.8274 181.983 45.8262 181.982 45.8254 181.981C45.8246 181.981 45.8242 181.98 45.4688 182.332C45.1133 182.683 45.1137 182.684 45.1145 182.685C45.1153 182.685 45.1165 182.687 45.1181 182.688C45.1213 182.691 45.1261 182.696 45.1324 182.703C45.1451 182.715 45.164 182.735 45.1892 182.76C45.2394 182.811 45.3145 182.887 45.4135 182.987C45.6116 183.187 45.9058 183.484 46.29 183.871C47.0584 184.647 48.187 185.785 49.6281 187.235C52.5103 190.136 56.6424 194.288 61.642 199.291C71.6412 209.297 85.111 222.708 98.9929 236.328C112.874 249.948 127.17 263.778 138.82 274.622C144.645 280.044 149.812 284.722 153.937 288.255C158.042 291.771 161.163 294.195 162.874 295.061L163.099 294.615ZM45.4688 182.332C45.8433 182.001 45.8431 182 45.8427 182C45.8423 181.999 45.8416 181.999 45.8406 181.998C45.8388 181.996 45.8358 181.992 45.8319 181.988C45.8241 181.979 45.8123 181.965 45.7966 181.947C45.7651 181.912 45.718 181.858 45.6558 181.786C45.5315 181.642 45.3469 181.428 45.1072 181.146C44.6278 180.581 43.9278 179.744 43.0473 178.659C41.2862 176.487 38.8036 173.319 35.9207 169.339C30.154 161.376 22.7899 150.168 16.395 137.179C3.59051 111.172 -5.2571 78.1755 10.1365 49.7862L9.69694 49.5478L9.25739 49.3094C-6.37936 78.1471 2.65894 111.543 15.4979 137.621C21.9248 150.674 29.3219 161.932 35.1109 169.925C38.0058 173.922 40.4997 177.104 42.2706 179.288C43.1562 180.38 43.861 181.223 44.345 181.793C44.587 182.078 44.7738 182.295 44.9003 182.441C44.9636 182.514 45.0118 182.569 45.0443 182.606C45.0606 182.625 45.0729 182.639 45.0813 182.648C45.0854 182.653 45.0886 182.657 45.0908 182.659C45.0919 182.66 45.0927 182.661 45.0933 182.662C45.0939 182.663 45.0942 182.663 45.4688 182.332Z" fill="#ED6096"/>
</svg>
