<svg width="178" height="178" viewBox="0 0 178 178" fill="none" xmlns="http://www.w3.org/2000/svg">
<circle cx="89" cy="89" r="89" fill="#F4F1E2"/>
<path d="M41.398 68.164C41.902 68.416 42.298 68.884 42.586 69.28C43.018 69.856 42.802 70.216 42.082 70.252L38.41 70.612C35.422 70.792 32.29 70.864 29.446 71.368C28.798 71.512 28.186 71.62 27.61 71.188C27.25 70.936 26.89 70.648 26.926 70.18C26.962 69.784 27.358 69.568 27.718 69.424L29.41 69.064C28.33 68.164 28.186 66.904 28.042 65.716C27.934 64.636 28.006 63.592 28.078 62.512C28.294 58.3 28.834 54.196 29.554 50.056C29.806 48.724 30.382 48.256 31.714 48.328C32.794 48.364 33.802 48.688 34.486 49.696C36.79 47.608 41.146 48.796 42.082 52.072C43.162 55.6 42.622 59.524 42.046 62.98C41.794 64.708 41.614 66.472 41.398 68.164ZM37.294 50.236C35.278 51.424 34.45 52.504 34.162 54.376C33.802 56.5 33.658 58.696 33.406 60.856C33.118 63.412 33.478 66.076 32.182 68.632L37.15 68.128C37.15 67.588 37.078 67.12 37.15 66.616C37.402 63.412 37.726 60.208 38.014 57.004C38.158 55.384 38.41 53.764 38.086 52.108C37.978 51.46 37.87 50.848 37.294 50.236ZM52.4981 64.888L53.0021 61.936L54.4061 52.612L54.5501 51.928C55.1981 49.336 58.3301 48.364 60.4541 49.624C61.4981 50.2 62.0381 51.172 62.0741 52.288C62.2901 57.112 61.8941 61.684 61.7501 66.256C61.7141 67.048 62.0021 67.804 62.3981 68.488C62.6861 68.956 62.0021 69.568 61.6781 69.712C60.2741 70.36 59.0501 70.36 57.8261 69.172C56.2061 67.84 57.8261 55.672 56.7461 51.82C55.2341 56.608 54.9101 61.504 54.4061 66.004C54.2981 66.724 53.7221 67.372 52.8581 67.624C49.8701 68.56 47.8901 66.976 47.6381 64.024C47.1701 59.812 47.0621 55.564 47.2061 51.352C46.0901 55.132 46.5581 59.02 46.4501 62.728L46.3061 68.956C46.2701 69.388 46.1621 69.712 45.7301 69.856C45.1181 70.072 44.0741 70.18 44.0741 69.316C43.7861 63.412 43.7501 58.048 44.4341 52.648C44.8301 50.02 47.4941 48.4 49.7981 48.904C53.6501 49.876 51.1301 59.92 52.4981 64.888ZM68.9414 68.092C71.9654 65.788 72.4334 61.36 72.7574 58.048C72.9374 56.248 72.6494 48.436 75.3134 48.796C78.0134 49.228 79.6334 49.732 79.9934 52.756C80.3174 55.636 80.1374 58.48 80.0654 61.36C80.0654 62.98 79.9214 64.6 79.9214 66.184C79.8854 67.264 79.9214 68.416 80.5334 69.28C80.6774 69.496 80.7134 69.712 80.5334 69.82C79.0574 70.864 77.2574 70.432 76.2854 69.136C75.2774 67.804 74.9534 66.256 74.9174 64.672C74.9174 61.828 74.9534 58.984 74.9894 53.836L74.7734 56.248C74.6294 59.128 74.2694 61.972 73.3334 64.744C72.9014 66.076 72.2534 67.3 71.3534 68.344C69.5534 70.504 65.8454 70.36 64.6214 67.336C63.1814 63.952 63.6854 58.696 63.6854 55.276C63.6854 53.656 63.6854 52 63.6494 50.38C63.6134 49.408 63.8294 49.156 64.8014 49.12C66.4934 49.084 67.6814 49.876 68.2574 51.46C68.6534 52.648 68.8694 53.836 68.8694 55.06C68.8334 57.904 68.8334 60.712 68.5814 63.556C68.4374 65.284 68.5454 66.724 68.9414 68.092ZM93.0965 49.588C93.2045 49.768 93.2765 50.02 93.2765 50.2C93.2765 50.308 92.9525 50.416 92.7725 50.416L88.4885 50.704C88.5965 51.64 88.6685 52.576 88.7045 53.512C88.7045 55.348 88.7045 57.22 88.6325 59.092C88.5605 61.9 88.3805 64.672 88.2725 67.444C88.3445 69.316 87.9125 69.928 87.0485 70.108C86.0765 70.252 84.5285 70.108 84.5285 68.704C84.4925 66.94 84.4565 65.14 84.4565 63.34C84.4205 59.74 84.3485 56.104 84.8165 52.504C84.8885 51.928 84.9965 51.352 85.1045 50.776C84.7445 50.776 81.1445 50.956 81.4325 49.48C81.5405 49.012 82.0805 49.12 82.4045 49.12C83.9525 49.12 85.5005 49.156 87.0485 49.12C88.5965 49.12 90.1445 49.084 91.6925 49.048C92.2685 49.012 92.7365 49.192 93.0965 49.588ZM99.3515 62.656C99.1715 64.852 99.4235 66.904 99.4235 68.92C99.4235 69.712 99.0275 70.108 98.2715 70.18C94.9595 70.54 94.7435 66.544 94.3475 63.808C94.0595 60.496 93.7355 56.14 94.2755 52.828C94.7795 50.524 94.9955 48.544 97.5875 48.616C98.8115 48.616 99.5315 49.408 99.5675 50.524C99.5675 51.316 99.3155 52.072 99.4595 52.72C100.468 51.028 101.476 49.588 103.384 49.048C105.868 48.292 108.64 49.336 109.144 52.864C109.72 56.608 107.092 61 103.528 62.332C102.052 62.872 100.792 63.232 99.3515 62.656ZM103.96 50.704L103.564 51.028C102.34 52.036 101.44 53.116 100.864 54.52C100.108 56.356 99.7835 58.048 99.5315 59.992C99.1355 62.08 102.196 60.82 103.204 59.092C104.716 56.5 104.572 53.368 103.96 50.704ZM115.559 68.092C118.583 65.788 119.051 61.36 119.375 58.048C119.555 56.248 119.267 48.436 121.931 48.796C124.631 49.228 126.251 49.732 126.611 52.756C126.935 55.636 126.755 58.48 126.683 61.36C126.683 62.98 126.539 64.6 126.539 66.184C126.503 67.264 126.539 68.416 127.151 69.28C127.295 69.496 127.331 69.712 127.151 69.82C125.675 70.864 123.875 70.432 122.903 69.136C121.895 67.804 121.571 66.256 121.535 64.672C121.535 61.828 121.571 58.984 121.607 53.836L121.391 56.248C121.247 59.128 120.887 61.972 119.951 64.744C119.519 66.076 118.871 67.3 117.971 68.344C116.171 70.504 112.463 70.36 111.239 67.336C109.799 63.952 110.303 58.696 110.303 55.276C110.303 53.656 110.303 52 110.267 50.38C110.231 49.408 110.447 49.156 111.419 49.12C113.111 49.084 114.299 49.876 114.875 51.46C115.271 52.648 115.487 53.836 115.487 55.06C115.451 57.904 115.451 60.712 115.199 63.556C115.055 65.284 115.163 66.724 115.559 68.092ZM137.014 46.096C137.194 45.484 137.122 44.656 137.878 44.476C138.454 44.332 139.066 44.332 139.606 44.656C140.002 44.908 140.146 45.232 139.93 45.664C139.138 47.428 137.986 48.796 135.898 49.048C133.234 49.588 130.678 47.14 131.074 44.476C131.038 44.008 131.29 43.72 131.686 43.576C132.658 43.252 133.558 43.36 134.422 43.9C135.466 44.584 134.386 45.988 134.782 46.96C134.89 47.248 136.222 48.22 137.014 46.096ZM133.594 68.092C136.618 65.788 137.086 61.36 137.41 58.048C137.59 56.248 137.302 48.436 139.966 48.796C142.666 49.228 144.286 49.732 144.646 52.756C144.97 55.636 144.79 58.48 144.718 61.36C144.718 62.98 144.574 64.6 144.574 66.184C144.538 67.264 144.574 68.416 145.186 69.28C145.33 69.496 145.366 69.712 145.186 69.82C143.71 70.864 141.91 70.432 140.938 69.136C139.93 67.804 139.606 66.256 139.57 64.672C139.57 61.828 139.606 58.984 139.642 53.836L139.426 56.248C139.282 59.128 138.922 61.972 137.986 64.744C137.554 66.076 136.906 67.3 136.006 68.344C134.206 70.504 130.498 70.36 129.274 67.336C127.834 63.952 128.338 58.696 128.338 55.276C128.338 53.656 128.338 52 128.302 50.38C128.266 49.408 128.482 49.156 129.454 49.12C131.146 49.084 132.334 49.876 132.91 51.46C133.306 52.648 133.522 53.836 133.522 55.06C133.486 57.904 133.486 60.712 133.234 63.556C133.09 65.284 133.198 66.724 133.594 68.092ZM83.3379 104.092C86.3619 101.788 86.8299 97.36 87.1539 94.048C87.3339 92.248 87.0459 84.436 89.7099 84.796C92.4099 85.228 94.0299 85.732 94.3899 88.756C94.7139 91.636 94.5339 94.48 94.4619 97.36C94.4619 98.98 94.3179 100.6 94.3179 102.184C94.2819 103.264 94.3179 104.416 94.9299 105.28C95.0739 105.496 95.1099 105.712 94.9299 105.82C93.4539 106.864 91.6539 106.432 90.6819 105.136C89.6739 103.804 89.3499 102.256 89.3139 100.672C89.3139 97.828 89.3499 94.984 89.3859 89.836L89.1699 92.248C89.0259 95.128 88.6659 97.972 87.7299 100.744C87.2979 102.076 86.6499 103.3 85.7499 104.344C83.9499 106.504 80.2419 106.36 79.0179 103.336C77.5779 99.952 78.0819 94.696 78.0819 91.276C78.0819 89.656 78.0819 88 78.0459 86.38C78.0099 85.408 78.2259 85.156 79.1979 85.12C80.8899 85.084 82.0779 85.876 82.6539 87.46C83.0499 88.648 83.2659 89.836 83.2659 91.06C83.2299 93.904 83.2299 96.712 82.9779 99.556C82.8339 101.284 82.9419 102.724 83.3379 104.092ZM59.0372 136.888L59.5412 133.936L60.9452 124.612L61.0892 123.928C61.7372 121.336 64.8692 120.364 66.9932 121.624C68.0372 122.2 68.5772 123.172 68.6132 124.288C68.8292 129.112 68.4332 133.684 68.2892 138.256C68.2532 139.048 68.5412 139.804 68.9372 140.488C69.2252 140.956 68.5412 141.568 68.2172 141.712C66.8132 142.36 65.5892 142.36 64.3652 141.172C62.7452 139.84 64.3652 127.672 63.2852 123.82C61.7732 128.608 61.4492 133.504 60.9452 138.004C60.8372 138.724 60.2612 139.372 59.3972 139.624C56.4092 140.56 54.4292 138.976 54.1772 136.024C53.7092 131.812 53.6012 127.564 53.7452 123.352C52.6292 127.132 53.0972 131.02 52.9892 134.728L52.8452 140.956C52.8092 141.388 52.7012 141.712 52.2692 141.856C51.6572 142.072 50.6132 142.18 50.6132 141.316C50.3252 135.412 50.2892 130.048 50.9732 124.648C51.3692 122.02 54.0332 120.4 56.3372 120.904C60.1892 121.876 57.6692 131.92 59.0372 136.888ZM78.5764 135.844L78.7204 133.144H74.1484L73.5724 136.6L72.9964 140.056C72.7804 140.848 71.8804 140.884 71.2324 140.812C70.7284 140.74 70.3684 140.56 70.4044 139.984C70.5484 136.996 70.9084 135.088 71.2324 133.216C71.2684 132.964 71.2324 132.82 70.9444 132.712C70.4044 132.46 70.2604 131.452 70.9804 131.2C71.6284 131.02 71.6644 130.912 71.7724 130.372C72.3844 127.492 73.4644 124.756 74.7964 122.164C75.9844 119.752 79.3684 120.436 81.2404 121.516C84.2284 123.856 84.0484 127.96 83.7604 131.272C83.6884 131.848 84.4804 131.92 84.3724 132.388C84.3724 132.892 83.5804 132.928 83.5084 133.504C83.2924 135.232 83.1124 136.996 82.8244 138.724C82.6444 139.516 82.4644 141.208 81.6724 141.604C80.8804 142.036 78.9364 142.504 78.6844 141.316C78.3244 139.48 78.5404 137.68 78.5764 135.844ZM77.5324 122.02C75.8764 124.792 75.4084 127.924 74.5444 130.948L78.8644 131.164C78.9364 129.832 79.0444 128.572 79.0444 127.312C79.0084 125.548 79.1884 122.848 77.5324 122.02ZM90.8789 134.656C90.6989 136.852 90.9509 138.904 90.9509 140.92C90.9509 141.712 90.5549 142.108 89.7989 142.18C86.4869 142.54 86.2709 138.544 85.8749 135.808C85.5869 132.496 85.2629 128.14 85.8029 124.828C86.3069 122.524 86.5229 120.544 89.1149 120.616C90.3389 120.616 91.0589 121.408 91.0949 122.524C91.0949 123.316 90.8429 124.072 90.9869 124.72C91.9949 123.028 93.0029 121.588 94.9109 121.048C97.3949 120.292 100.167 121.336 100.671 124.864C101.247 128.608 98.6189 133 95.0549 134.332C93.5789 134.872 92.3189 135.232 90.8789 134.656ZM95.4869 122.704L95.0909 123.028C93.8669 124.036 92.9669 125.116 92.3909 126.52C91.6349 128.356 91.3109 130.048 91.0589 131.992C90.6629 134.08 93.7229 132.82 94.7309 131.092C96.2429 128.5 96.0989 125.368 95.4869 122.704ZM107.086 140.092C110.11 137.788 110.578 133.36 110.902 130.048C111.082 128.248 110.794 120.436 113.458 120.796C116.158 121.228 117.778 121.732 118.138 124.756C118.462 127.636 118.282 130.48 118.21 133.36C118.21 134.98 118.066 136.6 118.066 138.184C118.03 139.264 118.066 140.416 118.678 141.28C118.822 141.496 118.858 141.712 118.678 141.82C117.202 142.864 115.402 142.432 114.43 141.136C113.422 139.804 113.098 138.256 113.062 136.672C113.062 133.828 113.098 130.984 113.134 125.836L112.918 128.248C112.774 131.128 112.414 133.972 111.478 136.744C111.046 138.076 110.398 139.3 109.498 140.344C107.698 142.504 103.99 142.36 102.766 139.336C101.326 135.952 101.83 130.696 101.83 127.276C101.83 125.656 101.83 124 101.794 122.38C101.758 121.408 101.974 121.156 102.946 121.12C104.638 121.084 105.826 121.876 106.402 123.46C106.798 124.648 107.014 125.836 107.014 127.06C106.978 129.904 106.978 132.712 106.726 135.556C106.582 137.284 106.69 138.724 107.086 140.092ZM123.573 140.668C125.229 139.552 126.165 135.484 126.381 133.792C126.489 133.288 126.525 132.82 126.597 132.28L126.165 132.172C123.393 131.956 121.557 130.264 121.125 127.564C120.837 124.72 121.809 120.976 124.869 120.904C126.381 120.832 127.965 121.696 128.577 123.1C129.117 124.396 129.261 125.764 129.297 127.168C129.297 127.6 129.333 128.032 129.333 128.68C129.945 127.96 130.377 127.384 130.521 126.628C130.845 125.188 131.205 123.748 131.565 122.308C131.817 121.372 132.105 121.156 132.861 121.156C133.833 121.156 134.445 121.516 134.625 122.38C134.913 123.604 134.841 124.864 134.625 126.124C134.337 128.248 133.905 130.372 133.617 132.568C133.293 135.304 133.077 138.076 132.825 140.848C132.753 141.496 132.681 141.712 132.033 141.856C131.637 141.964 131.205 142 130.809 141.964C130.197 141.892 129.801 141.496 129.693 140.884C129.369 138.94 129.189 136.996 129.369 135.016C129.513 133.648 129.621 132.244 129.729 130.84C129.225 131.02 129.045 131.416 128.937 131.92C128.613 133.54 128.289 135.232 127.857 136.816C127.425 138.436 126.669 140.236 125.373 141.28C123.969 142.468 121.701 142.18 120.657 140.668C119.685 139.372 119.397 137.896 119.757 136.42C120.081 135.16 121.665 135.052 122.709 135.232C123.501 135.34 123.789 135.808 123.681 136.636L123.321 139.12C123.249 139.624 123.213 140.164 123.573 140.668ZM126.345 123.748C126.201 123.208 125.589 121.516 124.869 122.236C122.673 124.036 122.997 127.78 124.473 129.796C124.869 130.3 125.337 130.732 125.949 130.948C126.489 131.128 126.705 131.02 126.741 130.48C126.885 127.888 126.885 125.908 126.345 123.748Z" fill="black"/>
</svg>
